Format : AVI
Format/Info : Audio Video Interleave
File size : 1.28 GiB
Duration : 1h 14mn
Overall bit rate : 2 460 Kbps
Writing library : VirtualDub build 32842/release

Video
ID : 0
Format : MPEG-4 Visual
Format profile : Advanced Simple@L5
Format settings, BVOP : 2
Format settings, QPel : No
Format settings, GMC : No warppoints
Format settings, Matrix : Default (H.263)
Muxing mode : Packed bitstream
Codec ID : XVID
Codec ID/Hint : XviD
Duration : 1h 14mn
Bit rate : 2 323 Kbps
Width : 624 pixels
Height : 338 pixels
Display aspect ratio : 16:9
Frame rate : 25.000 fps
Color space : YUV
Chroma subsampling : 4:2:0
Bit depth : 8 bits
Scan type : Progressive
Compression mode : Lossy
Bits/(Pixel*Frame) : 0.440
Stream size : 1.20 GiB (94%)
Writing library : XviD 63

Audio
ID : 1
Format : MPEG Audio
Format version : Version 1
Format profile : Layer 3
Mode : Joint stereo
Mode extension : MS Stereo
Codec ID : 55
Codec ID/Hint : MP3
Duration : 1h 14mn
Bit rate mode : Constant
Bit rate : 128 Kbps
Channel(s) : 2 channels
Sampling rate : 44.1 KHz
Compression mode : Lossy
Stream size : 67.9 MiB (5%)
Alignment : Split accross interleaves
Interleave, duration : 40 ms (1.00 video frame)
Interleave, preload duration : 500 ms
Writing library : LAME3.98r
Encoding settings : -m j -V 4 -q 2 -lowpass 17 -b 128






 
http://www.imdb.com/title/tt1772240/








Ratings: 7.6/10 from 750 users Metascore: 18/100
Reviews: 37 user | 3 critic | 8 from Metacritic.com

Decades-old found footage from NASA's abandoned Apollo 18 mission, where two American astronauts were sent on a secret expedition, reveals the reason the U.S. has never returned to the moon.
Director:
Gonzalo López-Gallego
Writers:
Brian Miller (screenplay), Cory Goodman
Stars:
Warren Christie, Lloyd Owen and Ryan Robbins






















Source Used


Video .... RUSSIAN CAMRiP........Thanks
Audio ....................CHOiCE........Thanks

Note 1st 3 mins are missing of the vid and no end credits but nothing else missing just that 3 mins of vid.The movie itself is kinda meant to look like this its to give it a 1974 feeling on the moon

Denoised ,resized ,change the levels filter ,altered rgb and added saturation

Enjoy

